<svg width="64" height="64" viewBox="0 0 64 64" fill="none" xmlns="http://www.w3.org/2000/svg">
  <rect width="64" height="64" rx="18" fill="#153D30"/>
  <path d="M15 33.5C20.2 27.7 26.1 25 32.6 25C39.1 25 44.7 27.7 49 33.5C43.9 39.3 38.1 42 31.7 42C25.3 42 19.7 39.3 15 33.5Z" stroke="#F4F1E8" stroke-width="3" stroke-linejoin="round"/>
  <path d="M41.5 17C38.2 17.6 35.4 19.2 33.4 21.8C31.4 24.4 30.6 27.4 31 30.8C34.3 30.2 37.1 28.6 39.1 26C41.1 23.4 41.9 20.4 41.5 17Z" fill="#DCE9C8"/>
  <circle cx="42" cy="33" r="2" fill="#F07845"/>
</svg>

